<?xml version="1.0" encoding="UTF-8" standalone="no"?>
<!DOCTYPE svg PUBLIC "-//W3C//DTD SVG 1.1//EN" "http://www.w3.org/Graphics/SVG/1.1/DTD/svg11.dtd">
<svg version="1.1" xmlns="http://www.w3.org/2000/svg" xmlns:xlink="http://www.w3.org/1999/xlink" preserveAspectRatio="xMidYMid meet" viewBox="110.87200000000001 46.8156170577502 420.3015877243402 420.69638294224984" width="416.3" height="416.7"><defs><path d="M493.57 126.98C493.06 125.95 492.54 124.42 493.06 123.39C494.9 118.02 509.64 75.01 511.49 69.63C512.51 66.56 509.44 63.49 506.37 64.51C500.99 66.36 457.98 81.1 452.61 82.94C451.58 83.46 450.05 82.94 449.02 82.43C444.47 79.05 408.01 52.02 403.46 48.64C400.9 46.59 397.31 48.64 397.31 51.71C397.36 57.34 397.77 102.4 397.82 108.03C397.82 109.06 397.31 110.59 396.29 111.1C391.68 114.38 354.82 140.6 350.21 143.87C347.65 145.92 348.16 150.02 351.23 151.04C356.61 152.73 399.62 166.25 404.99 167.94C406.53 168.45 407.04 169.47 407.55 170.5C409.24 175.87 422.76 218.88 424.45 224.26C425.47 227.33 429.57 227.84 431.62 225.28C434.89 220.67 461.11 183.81 464.38 179.2C464.9 178.18 466.43 177.66 467.46 177.66C473.09 177.72 518.14 178.12 523.78 178.18C527.36 178.69 529.41 175.1 527.36 172.54C520.6 163.43 496.95 131.53 493.57 126.98Z" id="a6M2HZ5zpZ"></path><path d="M112.64 458.75C111.62 459.78 111.62 461.82 112.64 463.36C113.66 464.9 116.22 464.9 117.25 463.36C144.38 438.02 361.47 235.26 388.61 209.92C388.61 209.92 389.12 209.41 389.63 208.9C395.78 202.24 395.26 192.51 388.61 186.37C381.95 180.22 372.22 180.74 366.08 187.39C315.39 241.66 137.98 431.62 112.64 458.75Z" id="aZKHWXxRi"></path><path d="M379.39 326.14C380.01 324.3 384.92 309.56 385.54 307.71C386.05 306.69 385.02 305.66 384 306.18C382.11 306.79 366.95 311.71 365.06 312.32C364.54 312.32 364.03 312.32 364.03 312.32C362.5 311.14 350.21 301.72 348.67 300.54C347.65 300.03 346.62 300.54 346.62 301.57C346.62 303.51 346.62 319.08 346.62 321.02C346.62 321.54 346.62 322.05 346.11 322.05C344.52 323.12 331.83 331.72 330.24 332.8C329.22 333.31 329.73 334.85 330.75 335.36C332.6 335.92 347.34 340.43 349.18 340.99C349.7 340.99 349.7 341.5 350.21 342.02C350.77 343.86 355.28 358.6 355.84 360.45C356.35 361.47 357.38 361.47 358.4 360.96C359.53 359.37 368.54 346.68 369.66 345.09C369.66 344.58 370.18 344.58 370.69 344.58C372.63 344.58 388.2 344.58 390.14 344.58C391.17 344.58 391.68 343.55 391.17 342.53C390.38 341.5 386.46 336.38 379.39 327.17C379.05 326.49 379.05 326.14 379.39 326.14Z" id="f1pYWiCUyY"></path><path d="M249.34 440.32C248.83 440.83 248.83 441.34 249.34 441.86C249.86 442.37 250.37 442.37 250.88 441.86C260.15 433.2 334.28 363.98 343.55 355.33C343.55 355.33 343.55 355.33 344.06 354.82C346.11 352.77 346.11 349.18 343.55 347.14C340.99 345.09 337.92 345.6 335.87 347.65C318.57 366.18 258 431.05 249.34 440.32Z" id="eeUsB9bt4"></path><path d="M267.78 190.98C268.29 190.98 268.29 191.49 268.8 192C269.36 193.84 273.87 208.59 274.43 210.43C274.94 211.46 275.97 211.46 276.99 210.94C278.12 209.36 287.13 196.66 288.26 195.07C288.26 194.56 288.77 194.56 289.28 194.56C291.23 194.56 306.79 194.56 308.74 194.56C309.76 194.56 310.27 193.54 309.76 192.51C308.58 190.98 299.16 178.69 297.98 177.15C297.98 176.64 297.47 176.13 297.98 176.13C298.6 174.28 303.51 159.54 304.13 157.7C304.64 156.67 303.62 155.65 302.59 156.16C300.75 156.77 286 161.69 284.16 162.3C283.65 162.3 283.14 162.3 283.14 162.3C281.6 161.13 269.31 151.71 267.78 150.53C266.75 150.02 265.73 150.53 265.73 151.55C265.73 153.5 265.73 169.06 265.73 171.01C265.73 171.52 265.73 172.03 265.22 172.03C263.63 173.16 250.93 182.17 249.34 183.3C248.32 183.3 248.32 184.83 249.34 185.34C253.03 186.47 265.93 190.41 267.78 190.98Z" id="c4zmU1YIAO"></path><path d="M262.14 205.31C262.14 205.31 262.14 205.31 262.66 204.8C264.7 202.75 264.7 199.17 262.14 197.12C260.1 195.07 256.51 195.07 254.46 197.63C245.81 206.85 176.59 280.58 167.94 289.79C167.42 290.3 167.42 290.82 167.94 291.33C168.45 291.84 168.96 291.84 169.47 291.84C188.01 274.53 252.88 213.96 262.14 205.31Z" id="an73PVBuy"></path></defs><g><g><use xlink:href="#a6M2HZ5zpZ" opacity="1" fill="#ffde00" fill-opacity="1"></use><g><use xlink:href="#a6M2HZ5zpZ" opacity="1" fill-opacity="0" stroke="#000000" stroke-width="1" stroke-opacity="0"></use></g></g><g><use xlink:href="#aZKHWXxRi" opacity="1" fill="#ffde00" fill-opacity="1"></use><g><use xlink:href="#aZKHWXxRi" opacity="1" fill-opacity="0" stroke="#000000" stroke-width="1" stroke-opacity="0"></use></g></g><g><use xlink:href="#f1pYWiCUyY" opacity="1" fill="#ffde00" fill-opacity="1"></use><g><use xlink:href="#f1pYWiCUyY" opacity="1" fill-opacity="0" stroke="#000000" stroke-width="1" stroke-opacity="0"></use></g></g><g><use xlink:href="#eeUsB9bt4" opacity="1" fill="#ffde00" fill-opacity="1"></use><g><use xlink:href="#eeUsB9bt4" opacity="1" fill-opacity="0" stroke="#000000" stroke-width="1" stroke-opacity="0"></use></g></g><g><use xlink:href="#c4zmU1YIAO" opacity="1" fill="#ffde00" fill-opacity="1"></use><g><use xlink:href="#c4zmU1YIAO" opacity="1" fill-opacity="0" stroke="#000000" stroke-width="1" stroke-opacity="0"></use></g></g><g><use xlink:href="#an73PVBuy" opacity="1" fill="#ffde00" fill-opacity="1"></use><g><use xlink:href="#an73PVBuy" opacity="1" fill-opacity="0" stroke="#000000" stroke-width="1" stroke-opacity="0"></use></g></g></g></svg>