<?xml version="1.0" encoding="UTF-8" standalone="no"?>
<!DOCTYPE svg PUBLIC "-//W3C//DTD SVG 1.1//EN" "http://www.w3.org/Graphics/SVG/1.1/DTD/svg11.dtd">
<svg version="1.1" xmlns="http://www.w3.org/2000/svg" xmlns:xlink="http://www.w3.org/1999/xlink" preserveAspectRatio="xMidYMid meet" viewBox="75.46207999999999 30.67232 492.03328 456.64384" width="488.03" height="452.64"><defs><path d="M520.34 269.17C534.13 266.15 535.06 254.06 535.06 254.06C535.06 254.06 535.98 266.15 549.78 269.17C535.97 272.2 535.06 284.29 535.06 284.29C532.11 281.27 534.13 272.19 520.34 269.17Z" id="a1hrdnusbY"></path><path d="M94.27 387.61C84.44 387.61 76.46 395.59 76.46 405.43C76.46 415.26 84.44 423.24 94.27 423.24C104.11 423.24 112.09 415.26 112.09 405.43C112.09 395.59 104.11 387.61 94.27 387.61Z" id="dgue2SXQa"></path><path d="M339 52.61C333.69 52.61 329.4 56.91 329.4 62.21C329.4 67.51 333.69 71.81 339 71.81C344.3 71.81 348.6 67.51 348.6 62.21C348.6 56.91 344.3 52.61 339 52.61Z" id="e8HYgcACb8"></path><path d="M535.06 122.26C548.85 119.24 549.78 107.15 549.78 107.15C549.78 107.15 550.7 119.24 564.5 122.26C550.69 125.29 549.78 137.37 549.78 137.37C546.83 134.35 548.85 125.28 535.06 122.26Z" id="c2L9tYePJJ"></path><path d="M156.08 273.55C173.87 269.65 175.05 254.06 175.05 254.06C175.05 254.06 176.24 269.65 194.03 273.55C176.24 277.44 175.05 293.03 175.05 293.03C171.26 289.13 173.86 277.44 156.08 273.55Z" id="a6AJ6SMPO"></path><path d="M164.29 62.21C192.17 56.1 194.03 31.67 194.03 31.67C194.03 31.67 195.89 56.1 223.77 62.21C195.89 68.31 194.03 92.74 194.03 92.74C188.08 86.64 192.17 68.32 164.29 62.21Z" id="b2C3mdrWu2"></path><path d="M305.72 313.41C316.77 317.69 328.79 320.03 341.35 320.03C395.96 320.03 440.23 275.76 440.23 221.15C440.23 209.56 438.24 198.44 434.57 188.1" id="c62pJqUjB"></path><path d="M385.65 109.1C453.73 56.16 512.73 30.92 532.34 50.53C559.02 77.21 502.69 176.81 406.52 272.98C310.34 369.16 210.75 425.49 184.07 398.81C166.37 381.1 187.21 329.8 229.98 270.21" id="d36as21nh6"></path><path d="M309.25 453.78C337.14 447.67 339 423.24 339 423.24C339 423.24 340.85 447.67 368.74 453.78C340.85 459.89 339 484.32 339 484.32C333.05 478.21 337.14 459.89 309.25 453.78Z" id="a3YH9v4VUc"></path><path d="M254.27 376.71C247.76 376.71 242.47 381.99 242.47 388.51C242.47 395.03 247.76 400.31 254.27 400.31C260.79 400.31 266.08 395.03 266.08 388.51C266.08 381.99 260.79 376.71 254.27 376.71Z" id="d2OTYSzW8V"></path><path d="M232.87 413.64C227.57 413.64 223.27 417.94 223.27 423.24C223.27 428.54 227.57 432.84 232.87 432.84C238.17 432.84 242.47 428.54 242.47 423.24C242.47 417.94 238.17 413.64 232.87 413.64Z" id="a1emoyJwNa"></path><path d="M375.15 118.91C434.38 72.86 485.7 50.9 502.76 67.97C525.98 91.18 476.97 177.82 393.31 261.48C309.65 345.14 223.01 394.16 199.79 370.94C184.39 355.54 200.78 312.22 237.99 260.37" id="eQ07QrR5V"></path><path d="M364.82 125.07C416.14 85.17 460.61 66.15 475.39 80.93C495.5 101.04 453.04 176.11 380.55 248.61C308.07 321.1 233 363.56 212.88 343.44C199.54 330.1 213.73 292.57 245.98 247.64" id="b1OjPRv9mZ"></path><path d="M368.02 133.59C388.75 123.64 445.88 90.26 452.08 98.9C464.29 115.87 402.74 207.27 353.26 253.24C303.78 299.21 237.44 339.93 225.24 322.96C220.04 315.73 240.96 276.63 249.37 260.06" id="g1gyvY2fyc"></path><path d="M508.53 86.57C502.01 86.57 496.73 91.86 496.73 98.38C496.73 104.89 502.01 110.18 508.53 110.18C515.05 110.18 520.33 104.89 520.33 98.38C520.33 91.86 515.05 86.57 508.53 86.57Z" id="a2arXbqARP"></path><path d="M422.46 164.57C404.58 138.99 374.92 122.27 341.35 122.27C286.74 122.27 242.47 166.53 242.47 221.14C242.47 253.32 257.84 281.9 281.63 299.96" id="a2TamuSYe6"></path></defs><g><g><use xlink:href="#a1hrdnusbY" opacity="1" fill="#ffeb60" fill-opacity="1"></use><g><use xlink:href="#a1hrdnusbY" opacity="1" fill-opacity="0" stroke="#000000" stroke-width="1" stroke-opacity="1"></use></g></g><g><use xlink:href="#dgue2SXQa" opacity="1" fill="#8960ff" fill-opacity="1"></use><g><use xlink:href="#dgue2SXQa" opacity="1" fill-opacity="0" stroke="#000000" stroke-width="2" stroke-opacity="1"></use></g></g><g><use xlink:href="#e8HYgcACb8" opacity="1" fill="#8960ff" fill-opacity="1"></use><g><use xlink:href="#e8HYgcACb8" opacity="1" fill-opacity="0" stroke="#000000" stroke-width="1" stroke-opacity="1"></use></g></g><g><use xlink:href="#c2L9tYePJJ" opacity="1" fill="#00ffea" fill-opacity="1"></use><g><use xlink:href="#c2L9tYePJJ" opacity="1" fill-opacity="0" stroke="#000000" stroke-width="1" stroke-opacity="1"></use></g></g><g><use xlink:href="#a6AJ6SMPO" opacity="1" fill="#ffeb60" fill-opacity="1"></use><g><use xlink:href="#a6AJ6SMPO" opacity="1" fill-opacity="0" stroke="#000000" stroke-width="1" stroke-opacity="1"></use></g></g><g><use xlink:href="#b2C3mdrWu2" opacity="1" fill="#00ffea" fill-opacity="1"></use><g><use xlink:href="#b2C3mdrWu2" opacity="1" fill-opacity="0" stroke="#000000" stroke-width="2" stroke-opacity="1"></use></g></g><g><use xlink:href="#c62pJqUjB" opacity="1" fill="#ffb9b9" fill-opacity="1"></use><g><use xlink:href="#c62pJqUjB" opacity="1" fill-opacity="0" stroke="#000000" stroke-width="2" stroke-opacity="1"></use></g></g><g><use xlink:href="#d36as21nh6" opacity="1" fill="#cbcbcb" fill-opacity="1"></use><g><use xlink:href="#d36as21nh6" opacity="1" fill-opacity="0" stroke="#000000" stroke-width="1" stroke-opacity="1"></use></g></g><g><use xlink:href="#a3YH9v4VUc" opacity="1" fill="#00ffea" fill-opacity="1"></use><g><use xlink:href="#a3YH9v4VUc" opacity="1" fill-opacity="0" stroke="#000000" stroke-width="2" stroke-opacity="1"></use></g></g><g><use xlink:href="#d2OTYSzW8V" opacity="1" fill="#ffeb60" fill-opacity="1"></use><g><use xlink:href="#d2OTYSzW8V" opacity="1" fill-opacity="0" stroke="#000000" stroke-width="1" stroke-opacity="1"></use></g></g><g><use xlink:href="#a1emoyJwNa" opacity="1" fill="#8860ff" fill-opacity="1"></use><g><use xlink:href="#a1emoyJwNa" opacity="1" fill-opacity="0" stroke="#000000" stroke-width="1" stroke-opacity="1"></use></g></g><g><use xlink:href="#eQ07QrR5V" opacity="1" fill="#7eeaff" fill-opacity="1"></use><g><use xlink:href="#eQ07QrR5V" opacity="1" fill-opacity="0" stroke="#000000" stroke-width="0.87" stroke-opacity="1"></use></g></g><g><use xlink:href="#b1OjPRv9mZ" opacity="1" fill="#98ff82" fill-opacity="0.93"></use><g><use xlink:href="#b1OjPRv9mZ" opacity="1" fill-opacity="0" stroke="#000000" stroke-width="2" stroke-opacity="1"></use></g></g><g><use xlink:href="#g1gyvY2fyc" opacity="1" fill="#ffb9b9" fill-opacity="1"></use><g><use xlink:href="#g1gyvY2fyc" opacity="1" fill-opacity="0" stroke="#000000" stroke-width="2" stroke-opacity="1"></use></g></g><g><use xlink:href="#a2arXbqARP" opacity="1" fill="#ffeb60" fill-opacity="1"></use><g><use xlink:href="#a2arXbqARP" opacity="1" fill-opacity="0" stroke="#000000" stroke-width="1" stroke-opacity="1"></use></g></g><g><use xlink:href="#a2TamuSYe6" opacity="1" fill="#ffb9b9" fill-opacity="1"></use><g><use xlink:href="#a2TamuSYe6" opacity="1" fill-opacity="0" stroke="#000000" stroke-width="2" stroke-opacity="1"></use></g></g></g></svg>